<svg xmlns="http://www.w3.org/2000/svg" viewBox="0 0 208 37.94"><defs><style>.a{fill:#113568;}.b{fill:#0e65a4;}</style></defs><title>logo_lancers2</title><path class="a" d="M88.37,37.42v-15a8.28,8.28,0,1,0-16.55,0v15H65V7.28h6.79V9.53l.34-.2a15.91,15.91,0,0,1,7.94-2c8.73,0,15.07,6.27,15.07,14.9V37.42Z" transform="translate(0.12 0.44)"/><polygon class="a" points="0 37.91 0 0 6.83 0 6.83 31.09 24.84 31.09 24.84 37.91 0 37.91"/><path class="b" d="M196.9,37.5a16.89,16.89,0,0,1-9.2-2.71l-.37-.23,2.15-6.51.63.45a11.51,11.51,0,0,0,6.58,2.38c2,0,4-.82,4-2.63,0-1.28-.67-2.16-4.33-3.43-4.05-1.39-7.79-3.4-7.79-8.72s4.23-9.36,10.06-9.36a14.79,14.79,0,0,1,7.47,2.09l.38.22-1.68,6.57-.66-.43a10,10,0,0,0-5.33-1.82c-1.87,0-3.12,1-3.12,2.41s.81,1.91,3.23,2.72c4.7,1.55,8.92,3.42,8.92,9.33C207.88,33.43,203.27,37.5,196.9,37.5Z" transform="translate(0.12 0.44)"/><path class="a" d="M51.3,37.42V34.94l-.34.22A15.07,15.07,0,1,1,51,9.54l.34.22V7.28h6.79V37.42ZM43,14.07a8.28,8.28,0,0,0-.17,16.56H43a8.28,8.28,0,0,0,0-16.56Z" transform="translate(0.12 0.44)"/><path class="b" d="M115.37,37.44a15.08,15.08,0,1,1,11.4-24.94l-5.19,4.35a8.32,8.32,0,1,0-.88,11.88,7.87,7.87,0,0,0,.88-.86l5.18,4.36a15,15,0,0,1-11.39,5.21Z" transform="translate(0.12 0.44)"/><path class="b" d="M159.92,22.35a15.07,15.07,0,1,0-15.37,15.06h.3a15.1,15.1,0,0,0,13.65-8.7h-8.38a8.21,8.21,0,0,1-5.27,1.92h-.17a8.32,8.32,0,0,1-7.38-4.9h22.23A15.1,15.1,0,0,0,159.92,22.35Zm-15.07-8.28A8.3,8.3,0,0,1,152.42,19H137.28A8.29,8.29,0,0,1,144.85,14.07Z" transform="translate(0.12 0.44)"/><path class="b" d="M180.26,7.28A15,15,0,0,0,172,9.77V7.28h-6.8V37.42H172V34.89h0V22.13a8.29,8.29,0,0,1,8.27-8.07,8.2,8.2,0,0,1,3.1.61l2.54-6.28A14.87,14.87,0,0,0,180.26,7.28Z" transform="translate(0.12 0.44)"/></svg>