<svg xmlns="http://www.w3.org/2000/svg" xmlns:xlink="http://www.w3.org/1999/xlink" viewBox="230 0 550.61 850.39"><defs><style>.cls-1{fill:none;}.cls-2{fill:#060001;}.cls-3{fill:url(#linear-gradient);}.cls-4{fill:url(#linear-gradient-2);}.cls-5{fill:url(#linear-gradient-3);}.cls-6{fill:url(#linear-gradient-4);}.cls-7{fill:url(#linear-gradient-5);}.cls-8{fill:url(#linear-gradient-6);}.cls-9{fill:url(#linear-gradient-7);}.cls-10{fill:url(#linear-gradient-8);}</style><linearGradient id="linear-gradient" x1="267.19" y1="517.27" x2="748.07" y2="517.27" gradientUnits="userSpaceOnUse"><stop offset="0" stop-color="#f9bb00"/><stop offset="1" stop-color="#d71518"/></linearGradient><linearGradient id="linear-gradient-2" x1="267.19" y1="512.06" x2="748.07" y2="512.06" xlink:href="#linear-gradient"/><linearGradient id="linear-gradient-3" x1="267.19" y1="503.45" x2="748.06" y2="503.45" xlink:href="#linear-gradient"/><linearGradient id="linear-gradient-4" x1="267.19" y1="491.09" x2="748.06" y2="491.09" xlink:href="#linear-gradient"/><linearGradient id="linear-gradient-5" x1="267.19" y1="474.45" x2="748.06" y2="474.45" xlink:href="#linear-gradient"/><linearGradient id="linear-gradient-6" x1="267.18" y1="452.59" x2="748.07" y2="452.59" xlink:href="#linear-gradient"/><linearGradient id="linear-gradient-7" x1="267.18" y1="423.72" x2="748.06" y2="423.72" xlink:href="#linear-gradient"/><linearGradient id="linear-gradient-8" x1="267.18" y1="379.38" x2="748.06" y2="379.38" xlink:href="#linear-gradient"/></defs><g id="レイヤー_2" data-name="レイヤー 2"><g id="レイヤー_1-2" data-name="レイヤー 1"><rect class="cls-1" width="3486.61" height="850.39"/><g id="グループ_13" data-name="グループ 13"></g><path class="cls-3" d="M267.19,459.06V579.27h54.68v-124Q294.77,458.46,267.19,459.06Z"/><path class="cls-4" d="M332.73,453.84V579.27H382V444.86Q357.64,450.4,332.73,453.84Z"/><path class="cls-5" d="M392.84,442.26v137h49.24V427.63Q417.86,436,392.84,442.26Z"/><path class="cls-6" d="M453,423.75V579.27H502.2V402.9C486.12,410.58,469.71,417.59,453,423.75Z"/><path class="cls-7" d="M513.06,397.55V579.27H562.3V369.63C546.34,379.71,529.93,389.06,513.06,397.55Z"/><path class="cls-8" d="M573.16,362.55V579.27h49.25V325.91A579.18,579.18,0,0,1,573.16,362.55Z"/><path class="cls-9" d="M633.28,316.65V579.27h49.24V268.18A574.35,574.35,0,0,1,633.28,316.65Z"/><path class="cls-10" d="M748.06,179.49a565.5,565.5,0,0,1-54.68,76.25V579.27h54.68Z"/></g></g></svg>