<svg xmlns="http://www.w3.org/2000/svg" height="800" width="1200" viewBox="-5.805105 -9.675175 50.31091 58.05105"><g fill-rule="evenodd" fill="#0D0"><path d="M16.8477 19.3501c0-1.3794 1.1245-2.504 2.504-2.504s2.5041 1.1171 2.5041 2.504c0 1.3795-1.1246 2.5041-2.5041 2.5041-1.3795 0-2.504-1.1171-2.504-2.5041zm6.7461-3.7108l6.0053-3.4712c1.1846-.6823 1.4095-2.3017.4498-3.2838-1.8818-1.9268-4.2809-3.3438-6.9799-4.0335-1.3345-.3374-2.6315.6523-2.6315 2.0317v6.9425c.0075 1.6119 1.7544 2.624 3.1563 1.8143zm-5.3365-1.8143V6.89c0-1.372-1.297-2.369-2.6315-2.0317-2.6916.6898-5.0907 2.1067-6.98 4.0335-.9596.9747-.7347 2.5941.4499 3.2838l6.0052 3.4712c1.4095.8022 3.1564-.2099 3.1564-1.8218zm6.4309 7.3471l6.0128 3.4712c1.1845.6823 2.699.0675 3.0663-1.2445a14.9416 14.9416 0 00.5548-4.041c0-1.402-.1949-2.7515-.5548-4.041-.3673-1.3196-1.8818-1.9268-3.0663-1.2446l-6.0128 3.4712c-1.402.8022-1.402 2.819 0 3.6287zm-9.5736 1.8892l-6.0053 3.4712c-1.1845.6822-1.4094 2.3016-.4498 3.2838 1.8818 1.9268 4.2809 3.3438 6.9799 4.0335 1.3345.3374 2.6316-.6523 2.6316-2.0318v-6.9424c-.015-1.6119-1.7619-2.6165-3.1564-1.8143zm-1.0939-5.5253l-6.0128-3.4713c-1.1846-.6822-2.699-.0674-3.0664 1.2446a14.9421 14.9421 0 00-.5548 4.041c0 1.402.195 2.7515.5548 4.041.3674 1.3195 1.8818 1.9268 3.0664 1.2445l6.0128-3.4712c1.3944-.8022 1.3944-2.8189 0-3.6286zm6.4266 7.3471v6.9425c0 1.372 1.297 2.3691 2.6315 2.0317 2.6915-.6897 5.0906-2.1067 6.9799-4.0335.9597-.9746.7347-2.594-.4498-3.2838l-6.0053-3.4712c-1.4095-.8097-3.1563.1949-3.1563 1.8143z" fill-rule="nonzero"/><path d="M19.3503 38.7007C8.6668 38.7007 0 30.0414 0 19.3503 0 8.6668 8.6668 0 19.3503 0c10.6911 0 19.3579 8.6668 19.3504 19.3503 0 10.6836-8.6593 19.3504-19.3504 19.3504zm17.1619-19.3505c0-9.4615-7.6996-17.1537-17.1611-17.1537-9.4615 0-17.1537 7.6922-17.1537 17.1537 0 9.4615 7.6922 17.1611 17.1537 17.1611 9.4615 0 17.1611-7.6996 17.1611-17.1611z"/></g></svg>